# xmcd CD database file
#
# Track frame offsets:
#	150
#	11934
#	25195
#	35214
#	46850
#	58369
#	69760
#	84673
#	98814
#	111271
#	127453
#	142276
#	155644
#	169829
#	186340
#	201181
#	215630
#	230067
#	245776
#	259647
#	272070
#	286629
#	298607
#	311108
#	324443
#
# Disc length: 4506 seconds
#
# Revision: 5
# Processed by: cddbd v1.5.2PL0 Copyright (c) Steve Scherf et al.
# Submitted via: CDex 1.51
#
DISCID=93119819
DTITLE=Artie Shaw - Begin The Beguine  [CD 06-10]
DYEAR=2005
DGENRE=Jazz
TTITLE0=Go Fly A Kite
TTITLE1=A Man And His Dream
TTITLE2=Traffic Jam
TTITLE3=Serenade To A Savage
TTITLE4=Easy To Say
TTITLE5=I'll Remember
TTITLE6=Moonray
TTITLE7=Melancholy Mood
TTITLE8=Put That Down In Writing
TTITLE9=Day In, Day Out
TTITLE10=Two Blind Loves
TTITLE11=The Last Two Weeks In July
TTITLE12=Oh! Lady, Be Good
TTITLE13=I Surrender, Dear
TTITLE14=Many Dreams Ago
TTITLE15=A Table In A Corner
TTITLE16=If What You Say Is True
TTITLE17=Without A Dream To My Name
TTITLE18=Love Is Here
TTITLE19=All Is Fun
TTITLE20=All The Things You Are
TTITLE21=You're A Lucky Guy
TTITLE22=Shadows
TTITLE23=I Didn't Know What Time It Was
TTITLE24=Do I Love You ¿
EXTD=YEAR: 2005
EXTT0=
EXTT1=
EXTT2=
EXTT3=
EXTT4=
EXTT5=
EXTT6=
EXTT7=
EXTT8=
EXTT9=
EXTT10=
EXTT11=
EXTT12=
EXTT13=
EXTT14=
EXTT15=
EXTT16=
EXTT17=
EXTT18=
EXTT19=
EXTT20=
EXTT21=
EXTT22=
EXTT23=
EXTT24=
PLAYORDER=
